<?xml version="1.0" encoding="UTF-8" ?>
<!DOCTYPE svg PUBLIC "-//W3C//DTD SVG 1.1//EN" "http://www.w3.org/Graphics/SVG/1.1/DTD/svg11.dtd">
<svg width="256pt" height="256pt" viewBox="0 0 256 256" version="1.1" xmlns="http://www.w3.org/2000/svg">
<path fill="#ffffff" d=" M 0.00 0.00 L 256.00 0.00 L 256.00 60.45 L 255.12 58.60 C 255.09 58.08 255.02 57.03 254.98 56.51 C 254.77 49.69 253.37 42.94 251.06 36.53 C 245.60 22.01 233.49 10.20 218.82 5.16 C 207.36 1.02 194.99 1.37 182.99 1.28 C 146.32 1.31 109.66 1.23 72.99 1.27 C 62.00 1.36 50.75 1.09 40.13 4.39 C 25.18 8.80 12.45 20.14 6.41 34.52 C 2.05 44.56 1.33 55.66 1.29 66.47 C 1.28 75.05 1.23 83.64 1.27 92.22 C 1.32 102.35 1.21 112.48 1.28 122.61 C 1.32 133.91 1.20 145.22 1.29 156.53 C 1.34 165.48 1.15 174.44 1.34 183.39 C 1.00 199.58 1.57 217.04 11.27 230.78 C 19.02 242.34 31.47 250.55 45.10 253.27 C 54.91 255.47 65.02 255.05 74.99 255.12 C 113.66 255.10 152.32 255.14 190.98 255.10 C 201.72 255.14 212.74 254.14 222.66 249.71 C 231.97 245.66 239.98 238.80 245.64 230.38 C 251.73 221.38 254.42 210.54 255.11 199.81 L 256.00 198.53 L 256.00 256.00 L 0.00 256.00 L 0.00 0.00 Z" />
<path fill="#fba63e" d=" M 40.13 4.39 C 50.75 1.09 62.00 1.36 72.99 1.27 C 109.66 1.23 146.32 1.31 182.99 1.28 C 194.99 1.37 207.36 1.02 218.82 5.16 C 233.49 10.20 245.60 22.01 251.06 36.53 C 245.06 35.80 239.01 35.99 232.98 36.10 C 203.25 36.12 173.52 35.97 143.78 36.21 C 141.65 34.05 139.48 31.93 137.35 29.77 C 133.41 25.70 129.23 21.89 125.27 17.85 C 120.76 13.33 116.16 8.89 111.68 4.35 C 109.51 1.75 105.94 2.18 102.93 1.95 C 103.00 2.71 103.07 3.46 103.15 4.21 C 95.28 7.11 87.44 10.16 79.24 12.05 C 66.69 17.13 53.45 20.23 40.64 24.59 C 35.91 26.51 30.91 27.61 26.03 29.04 C 19.49 30.89 13.40 34.69 6.41 34.52 C 12.45 20.14 25.18 8.80 40.13 4.39 Z" />
<path fill="#f8943a" d=" M 102.93 1.95 C 105.94 2.18 109.51 1.75 111.68 4.35 C 116.16 8.89 120.76 13.33 125.27 17.85 C 118.43 22.95 110.09 25.28 102.24 28.28 C 98.85 29.67 96.26 32.41 92.92 33.89 C 89.72 35.30 86.58 36.81 83.55 38.55 C 80.68 40.23 77.16 40.48 74.50 42.54 C 71.75 44.65 69.38 47.23 66.57 49.27 C 61.85 50.64 57.26 52.42 52.47 53.56 C 47.29 54.85 42.95 58.25 37.80 59.62 C 35.15 60.34 32.42 60.73 29.77 61.46 C 25.08 62.59 21.29 65.87 16.62 67.09 C 12.82 68.07 9.06 69.46 5.12 69.73 C 3.55 69.09 2.53 67.58 1.29 66.47 C 1.33 55.66 2.05 44.56 6.41 34.52 C 13.40 34.69 19.49 30.89 26.03 29.04 C 30.91 27.61 35.91 26.51 40.64 24.59 C 53.45 20.23 66.69 17.13 79.24 12.05 C 87.44 10.16 95.28 7.11 103.15 4.21 C 103.07 3.46 103.00 2.71 102.93 1.95 Z" />
<path fill="#f08737" d=" M 102.24 28.28 C 110.09 25.28 118.43 22.95 125.27 17.85 C 129.23 21.89 133.41 25.70 137.35 29.77 C 135.48 31.52 133.49 33.18 131.17 34.29 C 125.65 36.98 120.86 41.12 114.83 42.71 C 111.35 44.27 107.89 45.89 104.41 47.44 C 98.98 51.64 92.04 52.81 86.22 56.32 C 83.18 58.16 80.03 59.83 76.65 60.96 C 75.00 59.38 73.38 57.76 71.77 56.14 C 75.21 53.44 78.45 50.47 81.00 46.90 C 78.88 47.76 76.84 48.86 74.60 49.39 C 71.94 49.16 69.24 48.71 66.57 49.27 C 69.38 47.23 71.75 44.65 74.50 42.54 C 77.16 40.48 80.68 40.23 83.55 38.55 C 86.58 36.81 89.72 35.30 92.92 33.89 C 96.26 32.41 98.85 29.67 102.24 28.28 Z" />
<path fill="#ea7c33" d=" M 131.17 34.29 C 133.49 33.18 135.48 31.52 137.35 29.77 C 139.48 31.93 141.65 34.05 143.78 36.21 C 144.00 36.43 144.42 36.86 144.63 37.07 C 145.84 38.71 146.98 40.40 148.12 42.09 C 142.27 46.08 136.19 49.67 129.91 52.93 C 124.78 57.01 118.05 57.99 112.79 61.85 C 105.93 67.00 96.51 67.45 90.45 73.85 C 85.73 69.69 81.23 65.28 76.65 60.96 C 80.03 59.83 83.18 58.16 86.22 56.32 C 92.04 52.81 98.98 51.64 104.41 47.44 C 107.89 45.89 111.35 44.27 114.83 42.71 C 120.86 41.12 125.65 36.98 131.17 34.29 Z" />
<path fill="#fc983b" d=" M 143.78 36.21 C 173.52 35.97 203.25 36.12 232.98 36.10 C 239.01 35.99 245.06 35.80 251.06 36.53 C 253.37 42.94 254.77 49.69 254.98 56.51 C 254.29 60.22 253.74 63.96 253.47 67.72 C 237.32 68.17 221.16 67.65 205.00 67.91 C 196.40 67.77 187.71 68.66 179.20 66.98 C 169.50 55.11 157.65 45.11 144.63 37.07 C 144.42 36.86 144.00 36.43 143.78 36.21 Z" />
<path fill="#ffffff" d=" M 144.63 37.07 C 157.65 45.11 169.50 55.11 179.20 66.98 C 186.46 75.74 192.49 85.51 197.11 95.91 C 202.80 108.82 206.07 122.90 205.84 137.04 C 205.79 144.13 204.66 151.17 202.74 157.98 C 205.38 161.42 207.91 164.96 210.04 168.74 C 214.32 176.31 217.09 184.67 218.39 193.26 C 218.79 198.67 219.27 204.35 216.93 209.42 C 213.54 204.48 210.42 199.00 205.04 195.94 C 194.81 189.67 181.64 192.16 171.66 197.69 C 156.44 206.49 138.32 209.53 120.94 207.78 C 103.18 206.11 86.03 199.86 70.76 190.74 C 58.17 183.10 46.80 173.46 37.31 162.19 C 33.45 157.59 29.95 152.71 26.68 147.68 C 27.19 148.03 28.20 148.73 28.70 149.09 C 38.84 156.16 49.87 162.01 61.60 165.95 C 85.65 174.19 113.65 174.25 135.90 160.88 C 126.15 153.29 116.81 145.19 107.95 136.57 C 100.67 129.52 93.70 122.16 86.89 114.66 C 82.57 109.77 78.23 104.90 74.06 99.89 C 66.85 91.33 59.86 82.59 52.89 73.83 C 50.02 70.26 47.35 66.53 45.03 62.59 C 50.48 67.53 56.01 72.40 61.72 77.05 C 65.42 80.08 69.13 83.10 72.89 86.05 C 79.30 91.06 85.74 96.03 92.31 100.83 C 102.35 108.04 112.28 115.50 123.05 121.60 C 115.23 113.22 107.63 104.64 100.40 95.75 C 95.92 90.26 91.49 84.72 87.19 79.08 C 84.19 75.14 81.21 71.19 78.30 67.19 C 74.83 62.33 71.21 57.55 68.05 52.47 C 69.31 53.68 70.55 54.90 71.77 56.14 C 73.38 57.76 75.00 59.38 76.65 60.96 C 81.23 65.28 85.73 69.69 90.45 73.85 C 94.10 77.09 97.69 80.42 101.44 83.55 C 109.70 90.63 118.11 97.54 126.74 104.18 C 138.32 112.89 149.95 121.63 162.44 129.01 C 168.89 112.41 168.76 93.84 164.16 76.79 C 162.21 69.57 159.47 62.59 156.16 55.89 C 153.79 51.12 151.09 46.51 148.12 42.09 C 146.98 40.40 145.84 38.71 144.63 37.07 Z" />
<path fill="#e47130" d=" M 129.91 52.93 C 136.19 49.67 142.27 46.08 148.12 42.09 C 151.09 46.51 153.79 51.12 156.16 55.89 C 148.17 60.19 140.63 65.28 132.59 69.50 C 129.54 71.05 126.71 73.00 123.86 74.89 C 120.32 77.20 116.19 78.38 112.68 80.73 C 110.71 81.94 108.91 83.50 106.73 84.34 C 104.94 84.52 103.17 83.96 101.44 83.55 C 97.69 80.42 94.10 77.09 90.45 73.85 C 96.51 67.45 105.93 67.00 112.79 61.85 C 118.05 57.99 124.78 57.01 129.91 52.93 Z" />
<path fill="#f68137" d=" M 74.60 49.39 C 76.84 48.86 78.88 47.76 81.00 46.90 C 78.45 50.47 75.21 53.44 71.77 56.14 C 70.55 54.90 69.31 53.68 68.05 52.47 C 71.21 57.55 74.83 62.33 78.30 67.19 C 75.80 68.54 73.17 69.61 70.54 70.67 C 67.13 72.07 64.50 74.74 61.72 77.05 C 56.01 72.40 50.48 67.53 45.03 62.59 C 47.35 66.53 50.02 70.26 52.89 73.83 C 52.70 78.72 46.94 78.29 43.64 79.97 C 38.71 82.45 33.19 83.44 28.33 86.07 C 20.74 89.27 12.83 91.62 4.99 94.11 C 3.76 93.46 2.51 92.85 1.27 92.22 C 1.23 83.64 1.28 75.05 1.29 66.47 C 2.53 67.58 3.55 69.09 5.12 69.73 C 9.06 69.46 12.82 68.07 16.62 67.09 C 21.29 65.87 25.08 62.59 29.77 61.46 C 32.42 60.73 35.15 60.34 37.80 59.62 C 42.95 58.25 47.29 54.85 52.47 53.56 C 57.26 52.42 61.85 50.64 66.57 49.27 C 69.24 48.71 71.94 49.16 74.60 49.39 Z" />
<path fill="#dc652b" d=" M 132.59 69.50 C 140.63 65.28 148.17 60.19 156.16 55.89 C 159.47 62.59 162.21 69.57 164.16 76.79 C 162.13 80.67 159.38 84.44 155.23 86.22 C 150.75 88.12 146.43 90.52 143.04 94.09 C 140.05 97.38 135.65 98.60 132.21 101.27 C 130.56 102.54 128.69 103.46 126.74 104.18 C 118.11 97.54 109.70 90.63 101.44 83.55 C 103.17 83.96 104.94 84.52 106.73 84.34 C 108.91 83.50 110.71 81.94 112.68 80.73 C 116.19 78.38 120.32 77.20 123.86 74.89 C 126.71 73.00 129.54 71.05 132.59 69.50 Z" />
<path fill="#fc8938" d=" M 253.47 67.72 C 253.74 63.96 254.29 60.22 254.98 56.51 C 255.02 57.03 255.09 58.08 255.12 58.60 C 254.87 68.61 255.07 78.62 254.99 88.63 C 254.58 91.04 253.98 93.42 253.42 95.80 C 247.29 96.50 241.12 96.12 234.97 96.17 C 222.35 96.19 209.73 96.23 197.11 95.91 C 192.49 85.51 186.46 75.74 179.20 66.98 C 187.71 68.66 196.40 67.77 205.00 67.91 C 221.16 67.65 237.32 68.17 253.47 67.72 Z" />
<path fill="#ffe9e0" d=" M 255.12 58.60 L 256.00 60.45 L 256.00 198.53 L 255.11 199.81 C 254.88 185.75 255.12 171.69 254.97 157.64 C 255.04 146.26 255.03 134.87 254.95 123.49 C 255.07 111.87 254.97 100.25 254.99 88.63 C 255.07 78.62 254.87 68.61 255.12 58.60 Z" />
<path fill="#ee7633" d=" M 70.54 70.67 C 73.17 69.61 75.80 68.54 78.30 67.19 C 81.21 71.19 84.19 75.14 87.19 79.08 C 82.32 81.19 77.84 84.11 72.89 86.05 C 69.13 83.10 65.42 80.08 61.72 77.05 C 64.50 74.74 67.13 72.07 70.54 70.67 Z" />
<path fill="#f16f32" d=" M 52.89 73.83 C 59.86 82.59 66.85 91.33 74.06 99.89 C 68.67 104.67 61.32 105.77 55.23 109.32 C 46.94 113.43 38.48 117.15 30.15 121.15 C 23.79 125.20 16.36 126.83 9.57 129.94 C 6.99 127.29 4.18 124.89 1.28 122.61 C 1.21 112.48 1.32 102.35 1.27 92.22 C 2.51 92.85 3.76 93.46 4.99 94.11 C 12.83 91.62 20.74 89.27 28.33 86.07 C 33.19 83.44 38.71 82.45 43.64 79.97 C 46.94 78.29 52.70 78.72 52.89 73.83 Z" />
<path fill="#ce5524" d=" M 155.23 86.22 C 159.38 84.44 162.13 80.67 164.16 76.79 C 168.76 93.84 168.89 112.41 162.44 129.01 C 149.95 121.63 138.32 112.89 126.74 104.18 C 128.69 103.46 130.56 102.54 132.21 101.27 C 135.65 98.60 140.05 97.38 143.04 94.09 C 146.43 90.52 150.75 88.12 155.23 86.22 Z" />
<path fill="#e76c2f" d=" M 72.89 86.05 C 77.84 84.11 82.32 81.19 87.19 79.08 C 91.49 84.72 95.92 90.26 100.40 95.75 C 97.50 97.06 94.11 97.97 92.31 100.83 C 85.74 96.03 79.30 91.06 72.89 86.05 Z" />
<path fill="#fd7935" d=" M 253.42 95.80 C 253.98 93.42 254.58 91.04 254.99 88.63 C 254.97 100.25 255.07 111.87 254.95 123.49 C 254.04 127.50 253.60 131.59 253.53 135.70 C 242.69 136.05 231.84 135.65 221.00 135.86 C 216.37 135.99 211.75 135.71 207.18 135.08 C 206.73 135.73 206.28 136.39 205.84 137.04 C 206.07 122.90 202.80 108.82 197.11 95.91 C 209.73 96.23 222.35 96.19 234.97 96.17 C 241.12 96.12 247.29 96.50 253.42 95.80 Z" />
<path fill="#e0612b" d=" M 92.31 100.83 C 94.11 97.97 97.50 97.06 100.40 95.75 C 107.63 104.64 115.23 113.22 123.05 121.60 C 112.28 115.50 102.35 108.04 92.31 100.83 Z" />
<path fill="#e9602d" d=" M 55.23 109.32 C 61.32 105.77 68.67 104.67 74.06 99.89 C 78.23 104.90 82.57 109.77 86.89 114.66 C 79.76 121.24 70.89 125.50 62.01 129.16 C 57.99 131.39 55.01 135.34 50.40 136.51 C 45.14 137.80 41.13 141.58 36.23 143.65 C 33.35 144.89 31.00 147.01 28.70 149.09 C 28.20 148.73 27.19 148.03 26.68 147.68 C 21.17 141.58 15.21 135.91 9.57 129.94 C 16.36 126.83 23.79 125.20 30.15 121.15 C 38.48 117.15 46.94 113.43 55.23 109.32 Z" />
<path fill="#de5328" d=" M 62.01 129.16 C 70.89 125.50 79.76 121.24 86.89 114.66 C 93.70 122.16 100.67 129.52 107.95 136.57 C 99.20 141.38 90.84 146.86 82.86 152.85 C 78.90 156.29 74.55 159.23 70.37 162.39 C 67.85 164.41 64.65 165.13 61.60 165.95 C 49.87 162.01 38.84 156.16 28.70 149.09 C 31.00 147.01 33.35 144.89 36.23 143.65 C 41.13 141.58 45.14 137.80 50.40 136.51 C 55.01 135.34 57.99 131.39 62.01 129.16 Z" />
<path fill="#fd6831" d=" M 1.28 122.61 C 4.18 124.89 6.99 127.29 9.57 129.94 C 15.21 135.91 21.17 141.58 26.68 147.68 C 29.95 152.71 33.45 157.59 37.31 162.19 C 33.24 162.88 29.12 163.25 24.99 163.07 C 17.95 162.76 10.88 163.61 3.86 162.71 C 2.98 160.66 2.08 158.62 1.29 156.53 C 1.20 145.22 1.32 133.91 1.28 122.61 Z" />
<path fill="#fd6731" d=" M 253.53 135.70 C 253.60 131.59 254.04 127.50 254.95 123.49 C 255.03 134.87 255.04 146.26 254.97 157.64 C 254.61 160.71 254.18 163.79 254.17 166.89 C 242.44 167.29 230.71 167.02 218.99 166.78 C 215.87 166.60 212.82 167.38 210.04 168.74 C 207.91 164.96 205.38 161.42 202.74 157.98 C 204.66 151.17 205.79 144.13 205.84 137.04 C 206.28 136.39 206.73 135.73 207.18 135.08 C 211.75 135.71 216.37 135.99 221.00 135.86 C 231.84 135.65 242.69 136.05 253.53 135.70 Z" />
<path fill="#cd4520" d=" M 82.86 152.85 C 90.84 146.86 99.20 141.38 107.95 136.57 C 116.81 145.19 126.15 153.29 135.90 160.88 C 113.65 174.25 85.65 174.19 61.60 165.95 C 64.65 165.13 67.85 164.41 70.37 162.39 C 74.55 159.23 78.90 156.29 82.86 152.85 Z" />
<path fill="#fe5a2e" d=" M 1.29 156.53 C 2.08 158.62 2.98 160.66 3.86 162.71 C 10.88 163.61 17.95 162.76 24.99 163.07 C 29.12 163.25 33.24 162.88 37.31 162.19 C 46.80 173.46 58.17 183.10 70.76 190.74 C 64.41 193.04 57.62 192.08 51.03 192.19 C 37.69 192.26 24.34 192.08 11.01 192.27 C 8.54 192.28 6.07 192.08 3.62 191.85 C 2.99 189.00 2.20 186.18 1.34 183.39 C 1.15 174.44 1.34 165.48 1.29 156.53 Z" />
<path fill="#fe492b" d=" M 254.17 166.89 C 254.18 163.79 254.61 160.71 254.97 157.64 C 255.12 171.69 254.88 185.75 255.11 199.81 C 254.42 210.54 251.73 221.38 245.64 230.38 C 241.78 230.07 237.91 229.84 234.04 229.92 C 162.01 229.93 89.98 229.86 17.96 229.91 C 15.71 230.05 13.49 230.42 11.27 230.78 C 1.57 217.04 1.00 199.58 1.34 183.39 C 2.20 186.18 2.99 189.00 3.62 191.85 C 6.07 192.08 8.54 192.28 11.01 192.27 C 24.34 192.08 37.69 192.26 51.03 192.19 C 57.62 192.08 64.41 193.04 70.76 190.74 C 86.03 199.86 103.18 206.11 120.94 207.78 C 138.32 209.53 156.44 206.49 171.66 197.69 C 181.64 192.16 194.81 189.67 205.04 195.94 C 210.42 199.00 213.54 204.48 216.93 209.42 C 219.27 204.35 218.79 198.67 218.39 193.26 C 218.78 192.13 219.20 191.02 219.64 189.91 C 219.93 192.51 220.20 195.12 220.46 197.72 C 225.30 198.15 230.16 198.22 235.02 198.03 C 241.22 197.76 247.42 198.35 253.62 197.85 C 253.98 187.53 254.28 177.21 254.17 166.89 Z" />
<path fill="#fe592e" d=" M 210.04 168.74 C 212.82 167.38 215.87 166.60 218.99 166.78 C 230.71 167.02 242.44 167.29 254.17 166.89 C 254.28 177.21 253.98 187.53 253.62 197.85 C 247.42 198.35 241.22 197.76 235.02 198.03 C 230.16 198.22 225.30 198.15 220.46 197.72 C 220.20 195.12 219.93 192.51 219.64 189.91 C 219.20 191.02 218.78 192.13 218.39 193.26 C 217.09 184.67 214.32 176.31 210.04 168.74 Z" />
<path fill="#ff3c28" d=" M 11.27 230.78 C 13.49 230.42 15.71 230.05 17.96 229.91 C 89.98 229.86 162.01 229.93 234.04 229.92 C 237.91 229.84 241.78 230.07 245.64 230.38 C 239.98 238.80 231.97 245.66 222.66 249.71 C 212.74 254.14 201.72 255.14 190.98 255.10 C 152.32 255.14 113.66 255.10 74.99 255.12 C 65.02 255.05 54.91 255.47 45.10 253.27 C 31.47 250.55 19.02 242.34 11.27 230.78 Z" />
</svg>
