<?xml version="1.0" encoding="UTF-8" standalone="no"?>
<svg width="258px" height="232px" viewBox="0 0 258 232" version="1.1" xmlns="http://www.w3.org/2000/svg" xmlns:xlink="http://www.w3.org/1999/xlink" xmlns:sketch="http://www.bohemiancoding.com/sketch/ns">
    <!-- Generator: Sketch 3.0.4 (8053) - http://www.bohemiancoding.com/sketch -->
    <title>Swift 2</title>
    <desc>Created with Sketch.</desc>
    <defs></defs>
    <g id="Page-1" stroke="none" stroke-width="1" fill="none" fill-rule="evenodd" sketch:type="MSPage">
        <path d="M158.266667,1 C175.626667,11.7511628 191.426667,25.1232558 204.36,40.9959302 C214.04,52.7098837 222.08,65.7744186 228.24,79.6813953 C235.826667,96.9447674 240.186667,115.772674 239.88,134.680814 C239.813333,144.161628 238.306667,153.575581 235.746667,162.681977 C239.266667,167.281977 242.64,172.015698 245.48,177.070349 C251.186667,187.193023 254.88,198.372093 256.613333,209.858721 C257.146667,217.093023 257.786667,224.688372 254.666667,231.468023 C250.146667,224.862209 245.986667,217.534302 238.813333,213.442442 C225.173333,205.05814 207.613333,208.387791 194.306667,215.782558 C174.013333,227.55 149.853333,231.615116 126.68,229.275 C103,227.04186 80.1333333,218.684302 59.7733333,206.488953 C42.9866667,196.272674 27.8266667,183.381977 15.1733333,168.311628 C10.0266667,162.160465 5.36,155.634884 1,148.908721 C1.68,149.376744 3.02666667,150.312791 3.69333333,150.794186 C17.2133333,160.248256 31.92,168.07093 47.56,173.339535 C79.6266667,184.35814 116.96,184.438372 146.626667,166.559884 C133.626667,156.410465 121.173333,145.57907 109.36,134.052326 C99.6533333,124.625 90.36,114.78314 81.28,104.75407 C75.52,98.2151163 69.7333333,91.702907 64.1733333,85.0034884 C54.56,73.5569767 45.24,61.8697674 35.9466667,50.155814 C32.12,45.3819767 28.56,40.394186 25.4666667,35.1255814 C32.7333333,41.7313953 40.1066667,48.2436047 47.72,54.4616279 C52.6533333,58.5133721 57.6,62.5517442 62.6133333,66.4965116 C71.16,73.1959302 79.7466667,79.8418605 88.5066667,86.2604651 C101.893333,95.9017442 115.133333,105.877326 129.493333,114.034302 C119.066667,102.828488 108.933333,91.3552326 99.2933333,79.4674419 C93.32,72.1261628 87.4133333,64.7180233 81.68,57.1761628 C77.68,51.9075581 73.7066667,46.6255814 69.8266667,41.2767442 C65.2,34.777907 60.3733333,28.3860465 56.16,21.5930233 C57.84,23.2110465 59.4933333,24.8424419 61.12,26.5005814 C63.2666667,28.6668605 65.4266667,30.8331395 67.6266667,32.9459302 C73.7333333,38.7226744 79.7333333,44.6197674 86.0266667,50.1825581 C90.8933333,54.5151163 95.68,58.9680233 100.68,63.1534884 C111.693333,72.6209302 122.906667,81.8610465 134.413333,90.7401163 C149.853333,102.387209 165.36,114.074419 182.013333,123.943023 C190.613333,101.745349 190.44,76.9133721 184.306667,54.1139535 C181.706667,44.4593023 178.053333,35.1255814 173.64,26.1662791 C170.48,19.7877907 166.88,13.6232558 162.92,7.7127907 C161.4,5.45290698 159.88,3.19302326 158.266667,1 L158.266667,1 Z" id="Shape" stroke="#000000" sketch:type="MSShapeGroup"></path>
    </g>
</svg>